<svg width="391" height="298" viewBox="0 0 391 298" fill="none" xmlns="http://www.w3.org/2000/svg">
<g clip-path="url(#clip0_2_9)">
<path d="M361.766 270.866C348.955 280.651 333.348 290.564 318.003 295.238C313.579 296.626 309.015 297.511 304.394 297.879C300.075 298.227 295.727 297.889 291.513 296.876C280.438 294.113 270.166 289.274 260.227 283.621C256.98 281.772 253.77 279.837 250.579 277.86C245.37 274.631 240.213 271.289 235.042 268.027C234.268 267.533 233.498 267.048 232.724 266.568H232.719C231.471 265.782 230.219 265.007 228.965 264.243C228.744 264.107 228.524 263.975 228.299 263.838C225.929 262.398 223.518 260.991 221.067 259.616C220.767 259.451 220.467 259.282 220.166 259.117C215.424 256.479 210.55 254.086 205.563 251.949C202.287 250.565 198.97 249.317 195.619 248.254H195.614C194.333 247.849 193.048 247.468 191.757 247.119C187.887 246.054 183.944 245.28 179.96 244.803C174.469 244.137 168.916 244.181 163.437 244.935C163.066 244.987 162.7 245.039 162.33 245.1C147.501 247.482 133.967 255.512 119.073 257.404C118.59 257.465 118.111 257.522 117.628 257.564C117.421 257.583 117.215 257.606 117.008 257.62C112.68 257.992 108.324 257.885 104.019 257.3C91.9919 255.709 80.2791 250.772 69.7347 244.549C45.0844 230 25.0938 207.638 12.9399 181.74C10.8528 177.302 8.99978 172.756 7.38852 168.123C2.88356 155.274 0.402662 141.8 0.0351516 128.185C-1.10516 80.9461 25.6569 33.5521 67.6747 12.1873C109.697 -9.17739 164.976 -2.1123 198.866 30.7091C219.425 50.6194 231.321 77.5994 246.792 101.704C262.264 125.803 284.253 148.825 312.616 152.336C327.064 154.125 342.184 150.665 356.032 155.165C363.7 157.659 370.241 162.432 375.511 168.514C379.054 172.64 382.019 177.233 384.324 182.164C386.013 185.728 387.384 189.436 388.42 193.244C388.613 193.945 388.791 194.646 388.965 195.348C395.863 223.608 384.84 253.233 361.766 270.866Z" fill="#F2F2F2"/>
<path d="M131.002 219.706H86.8909C80.2821 219.706 74.9247 225.08 74.9247 231.709V231.709C74.9247 238.338 80.2821 243.711 86.8909 243.711H131.002C137.61 243.711 142.968 238.338 142.968 231.709C142.968 225.08 137.61 219.706 131.002 219.706Z" fill="#3F3D56"/>
<path d="M117.628 237.592V257.564C113.096 258.004 108.53 257.915 104.019 257.3V237.592H117.628Z" fill="#3F3D56"/>
<path d="M163.437 244.935C163.066 244.987 162.7 245.039 162.33 245.1C147.501 247.482 133.967 255.512 119.073 257.404C118.59 257.465 118.111 257.521 117.628 257.564C117.421 257.583 117.215 257.606 117.008 257.62C113.371 254.048 109.735 250.245 106.318 246.305C104.465 244.173 102.672 241.998 100.988 239.795C96.614 234.109 92.9068 228.263 90.4573 222.521C90.706 219.767 88.9978 213.399 88.1813 208.522L88.1766 208.518C87.8294 206.47 87.6417 204.691 87.8153 203.547C88.8102 196.948 94.1832 197.706 95.835 191.239C97.3251 189.998 98.9115 188.879 100.579 187.892C100.856 187.727 101.138 187.562 101.429 187.398L119.354 174.971L126.206 181.712L136.633 191.973L147.933 203.086L138.341 212.806C138.341 212.806 146.356 222.074 155.727 234.429C158.242 237.748 160.856 241.292 163.437 244.935Z" fill="#2F2E41"/>
<path d="M318.003 237.592V295.238C313.579 296.626 309.014 297.511 304.394 297.879V237.592H318.003Z" fill="#3F3D56"/>
<path d="M335.6 232.885H291.489C284.881 232.885 279.523 238.259 279.523 244.888V244.888C279.523 251.517 284.881 256.891 291.489 256.891H335.6C342.209 256.891 347.566 251.517 347.566 244.888C347.566 238.259 342.209 232.885 335.6 232.885Z" fill="#3F3D56"/>
<path d="M228.299 263.838C225.929 262.398 223.518 260.99 221.067 259.616C220.767 259.451 220.467 259.282 220.166 259.117L221.78 258.425L226.135 256.547L226.177 256.528L226.224 256.688L228.299 263.838Z" fill="#FFB6B6"/>
<path d="M235.042 268.027C234.268 267.533 233.498 267.048 232.724 266.568H232.719C231.471 265.782 230.219 265.007 228.965 264.243C228.744 264.106 228.524 263.975 228.299 263.838C225.929 262.398 223.518 260.99 221.067 259.616C220.767 259.451 220.467 259.282 220.166 259.117C215.424 256.479 210.55 254.086 205.563 251.948C202.287 250.565 198.97 249.317 195.619 248.254H195.614L192.982 243.834L181.133 223.928L178.529 219.555C178.529 219.555 169.645 222.191 157.074 224.719C152.499 225.641 147.44 226.545 142.133 227.308C136.459 228.117 130.509 228.762 124.596 229.073C121.776 229.223 118.965 229.299 116.196 229.275C109.04 229.228 102.165 228.555 96.1448 226.955C94.1363 225.063 88.0828 222.488 83.7468 220.13H83.7421C81.9214 219.141 80.4104 218.195 79.6173 217.353C75.0467 212.504 78.951 208.725 74.8872 203.434C74.8325 201.493 74.9313 199.551 75.1828 197.626C75.225 197.306 75.2673 196.981 75.3189 196.652L76.6 174.83L86.1166 173.569L100.598 171.648L116.286 169.568L118.012 183.133C118.012 183.133 130.227 182.512 145.704 182.719C170.56 183.058 203.822 185.543 208.327 196.209C208.749 197.212 209.171 198.224 209.594 199.236C210.598 201.655 211.593 204.087 212.578 206.531C216.149 215.38 219.556 224.314 222.667 232.758C224.601 238.011 226.421 243.076 228.097 247.816C229.444 251.628 230.692 255.234 231.832 258.552C232.874 261.584 233.817 264.375 234.657 266.879C234.788 267.269 234.915 267.655 235.042 268.027Z" fill="#2F2E41"/>
<path d="M147.498 135.816L117.439 110.209L136.996 90.3571L150.64 112.773L201.214 122.83C202.735 121.682 204.556 121.003 206.455 120.875C208.354 120.747 210.249 121.176 211.909 122.11C213.569 123.044 214.922 124.442 215.804 126.134C216.685 127.825 217.057 129.738 216.874 131.638C216.69 133.538 215.96 135.344 214.771 136.835C213.582 138.326 211.987 139.438 210.179 140.035C208.371 140.632 206.429 140.688 204.59 140.197C202.751 139.706 201.094 138.689 199.821 137.27L147.498 135.816Z" fill="#A0616A"/>
<path d="M90.8743 76.5566C87.4005 87.8921 120.485 114.927 120.485 114.927C120.852 112.206 139.61 135.672 140.886 133.547C144.513 127.507 148.504 112.577 152.691 110.669C155.086 109.578 141.349 94.4095 141.349 94.4095C141.349 94.4095 134.341 85.1105 125.089 73.3252C122.535 69.9446 119.17 67.2672 115.307 65.5421C111.444 63.817 107.208 63.1003 102.995 63.4589C102.995 63.4589 94.3481 65.2211 90.8743 76.5566Z" fill="#3F3D56"/>
<path d="M105.502 51.4623C116.73 51.4623 125.832 42.3323 125.832 31.07C125.832 19.8076 116.73 10.6777 105.502 10.6777C94.2739 10.6777 85.1717 19.8076 85.1717 31.07C85.1717 42.3323 94.2739 51.4623 105.502 51.4623Z" fill="#A0616A"/>
<path d="M115.667 64.9401C120.047 67.552 122.667 72.3508 124.171 77.234C126.956 86.2747 128.632 95.622 129.162 105.069L130.751 133.353L150.426 193.577C133.374 208.049 69.2812 196.866 69.2812 196.866C69.2812 196.866 67.3137 196.208 69.2812 194.235C71.2486 192.261 73.1639 194.009 71.1965 192.036C69.2291 190.062 70.5853 192.261 71.2412 190.288C71.897 188.314 71.2412 189.63 70.5854 188.972C69.9295 188.314 75.6624 182.394 75.6624 182.394L70.4158 147.825L63.8577 78.0964C71.7275 68.2292 87.5547 62.4125 87.5547 62.4125L91.6443 55.0289L112.092 56.6697L115.667 64.9401Z" fill="#3F3D56"/>
<path d="M122.261 20.2359C123.841 21.418 125.012 23.0675 125.608 24.952C125.837 21.8722 125.852 18.7802 125.652 15.6984C125.412 13.5329 123.892 13.0458 122.132 12.4813C120.543 11.9714 118.745 11.3953 118.262 9.29306C111.871 3.05713 100.746 3.37158 93.1324 5.54677C88.943 6.74374 86.5324 8.2816 86.3167 9.18249L86.272 9.36795L86.1019 9.45327C82.8726 11.0728 82.244 16.1871 82.2855 20.1922C82.3642 27.7381 84.9617 36.3082 86.425 37.0044C86.5024 37.0413 86.522 37.0269 86.5555 36.9988C88.7589 35.2326 91.447 37.1331 92.6284 38.1662C93.3251 33.4763 95.5686 29.1559 99.0006 25.895C102.432 22.6341 106.855 20.6208 111.561 20.1766C113.098 20.0276 114.623 19.7712 116.125 19.4091C116.886 19.2115 117.669 19.1084 118.456 19.1023C119.81 19.0817 121.138 19.4772 122.261 20.2359Z" fill="#2F2E41"/>
<path d="M96.6441 166.539L90.4251 163.344C90.0919 163.106 89.8552 162.756 89.7583 162.357C89.6613 161.958 89.7106 161.538 89.8971 161.173C90.0836 160.807 90.3949 160.522 90.7741 160.367C91.1533 160.213 91.5751 160.201 91.9625 160.333L98.1816 163.528C98.5148 163.766 98.7515 164.117 98.8484 164.515C98.9453 164.914 98.896 165.334 98.7095 165.7C98.523 166.065 98.2117 166.351 97.8325 166.505C97.4533 166.659 97.0315 166.671 96.6441 166.539Z" fill="#38B12D"/>
<path d="M75.7137 157.98L65.4832 119.777L92.8218 114.586L91.3517 140.808L127.272 177.908C129.174 177.83 131.057 178.308 132.692 179.285C134.327 180.262 135.644 181.695 136.481 183.41C137.318 185.124 137.64 187.046 137.407 188.941C137.174 190.835 136.396 192.621 135.169 194.08C133.942 195.539 132.318 196.609 130.495 197.158C128.672 197.708 126.73 197.713 124.904 197.174C123.078 196.635 121.448 195.575 120.213 194.123C118.977 192.671 118.189 190.889 117.946 188.996L75.7137 157.98Z" fill="#A0616A"/>
<path d="M62.6856 76.9446C53.4059 84.2928 65.3165 125.395 65.3165 125.395C67.1605 123.365 69.3034 153.366 71.5574 152.345C77.9635 149.441 89.705 139.43 94.2316 140.246C96.8203 140.713 94.1081 120.402 94.1081 120.402C94.1081 120.402 93.6093 108.756 92.6718 93.7851C92.485 89.5476 91.2323 85.4265 89.0305 81.8052C86.8287 78.1839 83.7492 75.1803 80.0788 73.074C80.0788 73.074 71.9654 69.5964 62.6856 76.9446Z" fill="#3F3D56"/>
<path d="M384.324 182.164L12.9398 181.74C10.8527 177.302 8.9997 172.756 7.38844 168.123L375.511 168.514C379.054 172.64 382.019 177.233 384.324 182.164Z" fill="#3F3D56"/>
<path d="M266.037 280.924C264.117 281.856 262.181 282.755 260.227 283.621C256.98 281.772 253.77 279.837 250.579 277.86L262.414 272.645L266.037 280.924Z" fill="#FFB6B6"/>
<path d="M352.325 216.063C350.401 218.652 348.416 221.189 346.37 223.674C344.483 225.966 342.547 228.215 340.56 230.419C339.739 231.332 338.908 232.241 338.059 233.14C336.496 234.82 334.899 236.472 333.268 238.096C330.33 239.023 324.38 240.657 318.003 242.182C313.362 243.288 308.495 244.337 304.394 245.006C302.098 245.419 299.776 245.668 297.444 245.749C294.676 245.773 291.865 245.698 289.045 245.547C285.863 245.378 282.677 245.114 279.528 244.775C271.339 243.914 263.409 242.572 256.567 241.193C254.061 240.694 251.705 240.186 249.537 239.692C245.431 238.764 241.996 237.898 239.509 237.239C236.708 236.505 235.112 236.03 235.112 236.03L228.097 247.816L224.455 253.93L221.78 258.425L221.067 259.616C220.767 259.451 220.467 259.282 220.166 259.117C215.424 256.479 210.55 254.086 205.563 251.948C202.287 250.565 198.97 249.317 195.619 248.254H195.614C194.333 247.849 193.048 247.467 191.757 247.119C192.161 246.032 192.569 244.937 192.982 243.834C193.751 241.777 194.537 239.701 195.338 237.606C197.069 233.069 198.862 228.466 200.706 223.886C202.217 220.125 203.756 216.378 205.314 212.683C206.032 210.979 207.491 209.483 209.533 208.169C210.508 207.552 211.526 207.005 212.578 206.531C218.421 203.863 227.027 202.126 236.511 201.01C237.294 200.921 238.083 200.831 238.876 200.747C246.727 199.918 255.056 199.49 262.846 199.292C266.745 199.193 270.509 199.156 274.009 199.151C275.14 199.151 276.24 199.154 277.308 199.16H277.313C280.199 199.174 282.855 199.217 285.192 199.264C285.647 199.273 286.088 199.287 286.52 199.297H286.525C286.816 199.302 287.102 199.311 287.383 199.316C292.494 199.447 295.628 199.607 295.628 199.607L296.844 190.043L297.092 188.113L297.327 186.278V186.273L297.355 186.042L297.548 186.037L300.926 185.972L329.326 185.416L344.84 185.11L342.381 195.682L338.322 213.126C338.735 215.884 352.465 213.724 352.325 216.063Z" fill="#2F2E41"/>
<path d="M269.537 279.183C268.378 279.776 267.21 280.359 266.037 280.924C264.117 281.856 262.181 282.755 260.227 283.621C256.98 281.772 253.77 279.837 250.579 277.86C245.37 274.631 240.213 271.289 235.042 268.027C234.267 267.533 233.498 267.048 232.724 266.568H232.719C230.588 263.396 228.416 260.091 226.224 256.688C226.191 256.641 226.163 256.594 226.135 256.547C225.572 255.681 225.012 254.809 224.455 253.93C220.95 248.423 217.426 242.681 214.005 236.816L222.667 232.758L238.772 225.218L241.55 223.919L249.537 239.692L256.661 253.761L258.247 256.891L269.537 279.183Z" fill="#2F2E41"/>
<path d="M271.965 203.457L313.025 163.738L324.406 131.416L307.619 124.094C298.997 132.379 289.676 158.183 289.676 158.183L261.421 194.24C261.2 194.316 260.981 194.396 260.764 194.492C259.491 195.055 258.385 195.938 257.552 197.055C256.718 198.172 256.187 199.486 256.008 200.87C255.829 202.253 256.008 203.66 256.53 204.953C257.051 206.246 257.896 207.383 258.983 208.253C260.07 209.123 261.363 209.698 262.736 209.92C264.109 210.143 265.516 210.006 266.821 209.524C268.127 209.042 269.286 208.23 270.187 207.167C271.088 206.104 271.7 204.826 271.965 203.457Z" fill="#FFB8B8"/>
<path d="M302.896 127.703L324.189 134.483L324.269 134.47C332.194 133.138 338.77 120.155 342.891 109.498C344.247 105.982 344.222 102.082 342.82 98.5848C341.419 95.0876 338.746 92.2545 335.342 90.6584C332.823 89.498 330.03 89.0674 327.28 89.4155C324.53 89.7636 321.932 90.8763 319.779 92.628L308.845 101.59L302.896 127.703Z" fill="#38B12D"/>
<path d="M352.239 216.54L352.364 216.374C359.007 207.536 349.921 185.65 348.547 182.476L354.724 180.641L353.647 168.843L353.129 163.583L357.932 159.008L357.948 158.891L361.251 135.313L365.573 119.708C367.202 113.808 367.236 107.58 365.673 101.663C364.109 95.7458 361.004 90.3525 356.675 86.0369L347.84 77.2383L337.255 60.6198L319.508 60.1602L313.126 71.5317C307.192 72.7466 301.87 76.0113 298.088 80.7573C294.306 85.5032 292.304 91.4295 292.431 97.5038L293.031 127.777L286.663 165.285L286.485 172.098L280.234 178.714L281.39 185.402L276.715 187.27L274.427 196.774C273.553 197.87 267.784 205.185 267.731 207.224C267.723 207.531 267.941 207.832 268.416 208.173C272.151 210.853 293.023 216.66 302.417 213.169C312.423 209.453 351.64 216.432 352.035 216.503L352.239 216.54Z" fill="#38B12D"/>
<path d="M326.832 55.0658C339.817 55.0658 350.344 44.5072 350.344 31.4824C350.344 18.4577 339.817 7.89906 326.832 7.89906C313.847 7.89906 303.32 18.4577 303.32 31.4824C303.32 44.5072 313.847 55.0658 326.832 55.0658Z" fill="#FFB8B8"/>
<path d="M323.964 55.3814C327.605 55.4383 331.244 55.1832 334.841 54.6188C338.407 53.8915 346.385 48.0276 348.609 44.4991C350.261 41.8774 351.318 37.7834 351.913 34.8108C352.715 30.8772 352.685 26.8184 351.823 22.8974C350.962 18.9763 349.29 15.2804 346.914 12.049C346.001 10.6974 344.74 9.61843 343.266 8.92627C343.135 8.87502 343.001 8.82961 342.865 8.79078C340.717 8.22384 338.787 7.02583 337.322 5.35055C337.038 5.0117 336.73 4.6938 336.401 4.39934C334.746 2.99827 332.783 2.00999 330.675 1.51528C327.271 0.60147 322.344 1.50854 316.033 4.21391C312.862 5.57315 309.394 5.08124 306.726 4.50078C306.577 4.47179 306.422 4.4826 306.278 4.53215C306.134 4.5817 306.005 4.66825 305.904 4.7832C304.769 5.852 303.273 6.45027 301.716 6.45776C300.763 6.49976 299.762 7.82407 298.553 9.55102C298.279 9.94304 297.958 10.4006 297.728 10.6788L297.697 10.1442L297.157 10.7406C296.309 11.678 295.712 12.8154 295.42 14.0468C295.129 15.2782 295.152 16.5636 295.489 17.7833C295.826 19.003 296.465 20.1173 297.347 21.0225C298.229 21.9277 299.325 22.5943 300.533 22.9603C301.492 23.2163 302.475 23.3734 303.466 23.4291C304.066 23.4833 304.687 23.5393 305.282 23.6429C307.192 24.0351 308.968 24.9174 310.436 26.2035C311.904 27.4897 313.015 29.1357 313.66 30.981C313.812 31.4076 314.061 31.7933 314.385 32.1083C314.71 32.4234 315.102 32.6594 315.532 32.7982C315.963 32.9369 316.419 32.9747 316.866 32.9086C317.312 32.8424 317.738 32.6742 318.11 32.4168C318.73 31.9327 319.457 31.6061 320.23 31.4649C321.003 31.3237 321.799 31.3722 322.549 31.6061C323.197 31.9677 323.702 32.5418 323.978 33.2323C324.314 34.0016 324.871 34.653 325.577 35.1036C327.994 36.3533 328.16 41.8896 327.292 46.5048C326.456 50.9534 324.802 54.1716 323.271 54.3307C322.092 54.453 321.957 54.537 321.872 54.7461L321.796 54.9333L321.928 55.1084C322.579 55.3452 323.273 55.4383 323.964 55.3814Z" fill="#2F2E41"/>
<path d="M308.734 120.573L299.669 102.444C286.51 103.345 260.394 118.606 260.394 118.606L210.981 129.114C209.517 128.55 207.931 128.382 206.382 128.628C204.833 128.874 203.376 129.525 202.158 130.516C200.939 131.506 200.003 132.801 199.442 134.27C198.881 135.739 198.715 137.33 198.963 138.883C199.21 140.436 199.86 141.897 200.849 143.118C201.838 144.339 203.13 145.277 204.595 145.838C206.06 146.399 207.647 146.563 209.195 146.313C210.743 146.063 212.199 145.409 213.415 144.416L276.271 139.896L308.734 120.573Z" fill="#FFB8B8"/>
<path d="M305.078 123.549L328.754 105.901L332.924 90.826C333.732 87.8635 333.698 84.7335 332.826 81.7895C331.953 78.8455 330.277 76.2049 327.987 74.1662C324.864 71.4236 320.819 69.9727 316.671 70.107C312.522 70.2412 308.579 71.9506 305.639 74.8894C296.729 83.8096 286.567 96.2542 288.75 104.883L288.772 104.971L305.078 123.549Z" fill="#38B12D"/>
<path d="M275.769 170.754H212.419V179.227H275.769V170.754Z" fill="white"/>
<path d="M113.873 170.754H50.523V179.227H113.873V170.754Z" fill="white"/>
<path d="M121.271 130.01V170.35C121.271 170.864 121.475 171.357 121.838 171.721C122.2 172.084 122.691 172.289 123.204 172.289H182.802C183.315 172.289 183.806 172.084 184.169 171.721C184.531 171.357 184.735 170.864 184.735 170.35V130.01C184.734 129.496 184.53 129.004 184.168 128.641C183.805 128.278 183.314 128.074 182.802 128.073H123.204C122.692 128.074 122.201 128.278 121.839 128.641C121.476 129.004 121.272 129.496 121.271 130.01Z" fill="#3F3D56"/>
<path d="M122.669 130.512V169.853C122.67 170.127 122.779 170.391 122.972 170.585C123.166 170.779 123.428 170.888 123.702 170.889H182.306C182.58 170.888 182.843 170.779 183.036 170.585C183.23 170.391 183.339 170.127 183.339 169.853V130.512C183.339 130.237 183.23 129.973 183.037 129.779C182.843 129.584 182.58 129.474 182.306 129.474H123.702C123.428 129.474 123.165 129.584 122.972 129.779C122.778 129.973 122.669 130.237 122.669 130.512Z" fill="#38B12D"/>
<path d="M120.024 178.218C120.134 178.355 120.272 178.466 120.43 178.542C120.588 178.617 120.761 178.656 120.936 178.655H184.752C184.927 178.655 185.099 178.616 185.257 178.541C185.414 178.465 185.553 178.355 185.663 178.219C185.773 178.084 185.851 177.925 185.892 177.755C185.933 177.584 185.936 177.407 185.9 177.236L184.91 172.516C184.869 172.324 184.78 172.145 184.652 171.995C184.525 171.846 184.362 171.731 184.179 171.661C184.046 171.608 183.904 171.582 183.762 171.582H121.923C121.781 171.582 121.639 171.608 121.506 171.661C121.323 171.731 121.16 171.846 121.032 171.995C120.905 172.145 120.816 172.324 120.775 172.516L119.785 177.236C119.749 177.407 119.753 177.584 119.794 177.754C119.836 177.924 119.914 178.082 120.024 178.218Z" fill="#2F2E41"/>
<path d="M181.572 173.615H183.079C183.206 173.615 183.309 173.512 183.309 173.385V172.661C183.309 172.535 183.206 172.432 183.079 172.432H181.572C181.446 172.432 181.343 172.535 181.343 172.661V173.385C181.343 173.512 181.446 173.615 181.572 173.615Z" fill="#3F3D56"/>
<path d="M177.641 173.615H179.148C179.275 173.615 179.378 173.512 179.378 173.385V172.661C179.378 172.535 179.275 172.432 179.148 172.432H177.641C177.515 172.432 177.412 172.535 177.412 172.661V173.385C177.412 173.512 177.515 173.615 177.641 173.615Z" fill="#3F3D56"/>
<path d="M173.71 173.615H175.217C175.344 173.615 175.447 173.512 175.447 173.385V172.661C175.447 172.535 175.344 172.432 175.217 172.432H173.71C173.584 172.432 173.481 172.535 173.481 172.661V173.385C173.481 173.512 173.584 173.615 173.71 173.615Z" fill="#3F3D56"/>
<path d="M169.779 173.615H171.286C171.413 173.615 171.516 173.512 171.516 173.385V172.661C171.516 172.535 171.413 172.432 171.286 172.432H169.779C169.653 172.432 169.55 172.535 169.55 172.661V173.385C169.55 173.512 169.653 173.615 169.779 173.615Z" fill="#3F3D56"/>
<path d="M165.848 173.615H167.355C167.482 173.615 167.585 173.512 167.585 173.385V172.661C167.585 172.535 167.482 172.432 167.355 172.432H165.848C165.722 172.432 165.619 172.535 165.619 172.661V173.385C165.619 173.512 165.722 173.615 165.848 173.615Z" fill="#3F3D56"/>
<path d="M161.917 173.615H163.424C163.551 173.615 163.654 173.512 163.654 173.385V172.661C163.654 172.535 163.551 172.432 163.424 172.432H161.917C161.791 172.432 161.688 172.535 161.688 172.661V173.385C161.688 173.512 161.791 173.615 161.917 173.615Z" fill="#3F3D56"/>
<path d="M157.986 173.615H159.493C159.62 173.615 159.723 173.512 159.723 173.385V172.661C159.723 172.535 159.62 172.432 159.493 172.432H157.986C157.86 172.432 157.757 172.535 157.757 172.661V173.385C157.757 173.512 157.86 173.615 157.986 173.615Z" fill="#3F3D56"/>
<path d="M154.055 173.615H155.562C155.689 173.615 155.792 173.512 155.792 173.385V172.661C155.792 172.535 155.689 172.432 155.562 172.432H154.055C153.929 172.432 153.826 172.535 153.826 172.661V173.385C153.826 173.512 153.929 173.615 154.055 173.615Z" fill="#3F3D56"/>
<path d="M150.124 173.615H151.631C151.758 173.615 151.861 173.512 151.861 173.385V172.661C151.861 172.535 151.758 172.432 151.631 172.432H150.124C149.998 172.432 149.895 172.535 149.895 172.661V173.385C149.895 173.512 149.998 173.615 150.124 173.615Z" fill="#3F3D56"/>
<path d="M146.193 173.615H147.7C147.827 173.615 147.93 173.512 147.93 173.385V172.661C147.93 172.535 147.827 172.432 147.7 172.432H146.193C146.067 172.432 145.964 172.535 145.964 172.661V173.385C145.964 173.512 146.067 173.615 146.193 173.615Z" fill="#3F3D56"/>
<path d="M142.262 173.615H143.769C143.896 173.615 143.999 173.512 143.999 173.385V172.661C143.999 172.535 143.896 172.432 143.769 172.432H142.262C142.136 172.432 142.033 172.535 142.033 172.661V173.385C142.033 173.512 142.136 173.615 142.262 173.615Z" fill="#3F3D56"/>
<path d="M138.331 173.615H139.838C139.965 173.615 140.068 173.512 140.068 173.385V172.661C140.068 172.535 139.965 172.432 139.838 172.432H138.331C138.205 172.432 138.102 172.535 138.102 172.661V173.385C138.102 173.512 138.205 173.615 138.331 173.615Z" fill="#3F3D56"/>
<path d="M134.4 173.615H135.907C136.034 173.615 136.137 173.512 136.137 173.385V172.661C136.137 172.535 136.034 172.432 135.907 172.432H134.4C134.274 172.432 134.171 172.535 134.171 172.661V173.385C134.171 173.512 134.274 173.615 134.4 173.615Z" fill="#3F3D56"/>
<path d="M130.469 173.615H131.976C132.103 173.615 132.206 173.512 132.206 173.385V172.661C132.206 172.535 132.103 172.432 131.976 172.432H130.469C130.343 172.432 130.24 172.535 130.24 172.661V173.385C130.24 173.512 130.343 173.615 130.469 173.615Z" fill="#3F3D56"/>
<path d="M126.538 173.615H128.045C128.172 173.615 128.275 173.512 128.275 173.385V172.661C128.275 172.535 128.172 172.432 128.045 172.432H126.538C126.412 172.432 126.309 172.535 126.309 172.661V173.385C126.309 173.512 126.412 173.615 126.538 173.615Z" fill="#3F3D56"/>
<path d="M122.607 173.615H124.114C124.241 173.615 124.344 173.512 124.344 173.385V172.661C124.344 172.535 124.241 172.432 124.114 172.432H122.607C122.481 172.432 122.378 172.535 122.378 172.661V173.385C122.378 173.512 122.481 173.615 122.607 173.615Z" fill="#3F3D56"/>
<path d="M181.619 175.586H183.126C183.252 175.586 183.355 175.483 183.355 175.356V174.633C183.355 174.506 183.252 174.403 183.126 174.403H181.619C181.492 174.403 181.39 174.506 181.39 174.633V175.356C181.39 175.483 181.492 175.586 181.619 175.586Z" fill="#3F3D56"/>
<path d="M177.688 175.586H179.195C179.321 175.586 179.424 175.483 179.424 175.356V174.633C179.424 174.506 179.321 174.403 179.195 174.403H177.688C177.561 174.403 177.459 174.506 177.459 174.633V175.356C177.459 175.483 177.561 175.586 177.688 175.586Z" fill="#3F3D56"/>
<path d="M173.757 175.586H175.264C175.39 175.586 175.493 175.483 175.493 175.356V174.633C175.493 174.506 175.39 174.403 175.264 174.403H173.757C173.63 174.403 173.527 174.506 173.527 174.633V175.356C173.527 175.483 173.63 175.586 173.757 175.586Z" fill="#3F3D56"/>
<path d="M169.826 175.586H171.333C171.459 175.586 171.562 175.483 171.562 175.356V174.633C171.562 174.506 171.459 174.403 171.333 174.403H169.826C169.699 174.403 169.597 174.506 169.597 174.633V175.356C169.597 175.483 169.699 175.586 169.826 175.586Z" fill="#3F3D56"/>
<path d="M165.895 175.586H167.402C167.528 175.586 167.631 175.483 167.631 175.356V174.633C167.631 174.506 167.528 174.403 167.402 174.403H165.895C165.768 174.403 165.665 174.506 165.665 174.633V175.356C165.665 175.483 165.768 175.586 165.895 175.586Z" fill="#3F3D56"/>
<path d="M161.964 175.586H163.471C163.597 175.586 163.7 175.483 163.7 175.356V174.633C163.7 174.506 163.597 174.403 163.471 174.403H161.964C161.837 174.403 161.734 174.506 161.734 174.633V175.356C161.734 175.483 161.837 175.586 161.964 175.586Z" fill="#3F3D56"/>
<path d="M158.033 175.586H159.54C159.666 175.586 159.769 175.483 159.769 175.356V174.633C159.769 174.506 159.666 174.403 159.54 174.403H158.033C157.906 174.403 157.803 174.506 157.803 174.633V175.356C157.803 175.483 157.906 175.586 158.033 175.586Z" fill="#3F3D56"/>
<path d="M154.102 175.586H155.609C155.735 175.586 155.838 175.483 155.838 175.356V174.633C155.838 174.506 155.735 174.403 155.609 174.403H154.102C153.975 174.403 153.872 174.506 153.872 174.633V175.356C153.872 175.483 153.975 175.586 154.102 175.586Z" fill="#3F3D56"/>
<path d="M150.171 175.586H151.678C151.804 175.586 151.907 175.483 151.907 175.356V174.633C151.907 174.506 151.804 174.403 151.678 174.403H150.171C150.044 174.403 149.941 174.506 149.941 174.633V175.356C149.941 175.483 150.044 175.586 150.171 175.586Z" fill="#3F3D56"/>
<path d="M146.24 175.586H147.747C147.873 175.586 147.976 175.483 147.976 175.356V174.633C147.976 174.506 147.873 174.403 147.747 174.403H146.24C146.113 174.403 146.01 174.506 146.01 174.633V175.356C146.01 175.483 146.113 175.586 146.24 175.586Z" fill="#3F3D56"/>
<path d="M142.309 175.586H143.816C143.942 175.586 144.045 175.483 144.045 175.356V174.633C144.045 174.506 143.942 174.403 143.816 174.403H142.309C142.182 174.403 142.079 174.506 142.079 174.633V175.356C142.079 175.483 142.182 175.586 142.309 175.586Z" fill="#3F3D56"/>
<path d="M138.378 175.586H139.885C140.011 175.586 140.114 175.483 140.114 175.356V174.633C140.114 174.506 140.011 174.403 139.885 174.403H138.378C138.251 174.403 138.148 174.506 138.148 174.633V175.356C138.148 175.483 138.251 175.586 138.378 175.586Z" fill="#3F3D56"/>
<path d="M134.447 175.586H135.954C136.08 175.586 136.183 175.483 136.183 175.356V174.633C136.183 174.506 136.08 174.403 135.954 174.403H134.447C134.32 174.403 134.217 174.506 134.217 174.633V175.356C134.217 175.483 134.32 175.586 134.447 175.586Z" fill="#3F3D56"/>
<path d="M130.516 175.586H132.023C132.149 175.586 132.252 175.483 132.252 175.356V174.633C132.252 174.506 132.149 174.403 132.023 174.403H130.516C130.389 174.403 130.286 174.506 130.286 174.633V175.356C130.286 175.483 130.389 175.586 130.516 175.586Z" fill="#3F3D56"/>
<path d="M126.585 175.586H128.092C128.218 175.586 128.321 175.483 128.321 175.356V174.633C128.321 174.506 128.218 174.403 128.092 174.403H126.585C126.458 174.403 126.355 174.506 126.355 174.633V175.356C126.355 175.483 126.458 175.586 126.585 175.586Z" fill="#3F3D56"/>
<path d="M122.654 175.586H124.161C124.287 175.586 124.39 175.483 124.39 175.356V174.633C124.39 174.506 124.287 174.403 124.161 174.403H122.654C122.527 174.403 122.424 174.506 122.424 174.633V175.356C122.424 175.483 122.527 175.586 122.654 175.586Z" fill="#3F3D56"/>
<path d="M148.991 177.952H164.257C164.384 177.952 164.486 177.849 164.486 177.722V176.999C164.486 176.872 164.384 176.769 164.257 176.769H148.991C148.865 176.769 148.762 176.872 148.762 176.999V177.722C148.762 177.849 148.865 177.952 148.991 177.952Z" fill="#3F3D56"/>
</g>
<defs>
<clipPath id="clip0_2_9">
<rect width="391" height="298" fill="white"/>
</clipPath>
</defs>
</svg>
